<?xml version="1.0" standalone="no"?>
<!DOCTYPE svg PUBLIC "-//W3C//DTD SVG 20010904//EN"
 "http://www.w3.org/TR/2001/REC-SVG-20010904/DTD/svg10.dtd">
<svg version="1.0" xmlns="http://www.w3.org/2000/svg"
 width="1024.000000pt" height="1024.000000pt" viewBox="0 0 1024.000000 1024.000000"
 preserveAspectRatio="xMidYMid meet">
<metadata>
Created by potrace 1.14, written by Peter Selinger 2001-2017
</metadata>
<g transform="translate(0.000000,1024.000000) scale(0.100000,-0.100000)"
fill="#000000" stroke="none">
<path d="M0 5120 l0 -5120 5120 0 5120 0 0 5120 0 5120 -5120 0 -5120 0 0
-5120z m5454 3115 c154 -32 304 -105 397 -192 44 -41 47 -42 95 -37 111 13
268 -50 365 -146 97 -96 144 -201 155 -345 15 -186 -69 -369 -220 -481 -39
-30 -68 -44 -90 -44 -24 0 -27 -3 -16 -10 8 -5 12 -10 8 -10 -3 0 -13 -3 -22
-6 -14 -5 -13 0 3 37 11 24 22 64 26 89 6 36 13 49 38 65 39 25 98 110 123
179 14 37 19 77 19 151 0 92 -3 105 -32 166 -40 80 -120 160 -200 197 -47 21
-77 27 -157 30 l-99 4 -81 65 c-90 71 -189 123 -286 150 -60 17 -117 18 -695
16 l-630 -2 75 24 c314 102 486 126 890 120 189 -2 276 -7 334 -20z m-1322
-327 c79 -23 134 -44 126 -48 -7 -4 -53 -11 -101 -14 -145 -12 -287 -66 -452
-174 -38 -25 -73 -45 -77 -44 -5 1 -8 -3 -8 -9 0 -5 -5 -7 -12 -3 -6 4 -8 3
-4 -4 6 -11 -30 -42 -49 -42 -5 0 -3 5 5 10 13 8 11 12 -8 26 -19 13 -23 23
-18 45 6 32 -7 39 -23 12 -6 -10 -11 -13 -11 -6 0 17 60 64 72 57 6 -4 8 -2 4
4 -13 22 167 131 364 219 37 17 42 16 192 -29z m943 -18 l370 -5 47 -25 c27
-14 99 -65 160 -114 l113 -88 100 -2 c78 -1 110 -6 146 -22 90 -42 113 -132
62 -246 -25 -56 -28 -59 -52 -51 -14 4 -195 8 -401 9 -445 1 -516 11 -270 38
207 23 483 62 532 76 47 14 84 43 73 59 -23 38 -122 47 -292 25 -27 -3 -43 -1
-43 5 0 6 5 11 10 11 20 0 10 17 -17 29 -16 7 -71 43 -123 81 -52 37 -108 70
-123 74 -15 4 -112 11 -215 16 -122 6 -206 15 -242 26 -67 20 -176 74 -210
104 -14 12 -18 18 -10 13 8 -4 182 -10 385 -13z m-245 -220 c35 -7 93 -34 181
-87 71 -43 129 -80 129 -84 0 -24 -416 -48 -514 -31 -34 6 -23 10 95 30 74 12
152 24 173 27 44 6 60 15 30 16 -10 0 -28 3 -39 5 -11 3 -96 7 -190 10 -251 9
-414 -23 -620 -121 -131 -62 -202 -114 -297 -214 -96 -100 -141 -181 -182
-326 -29 -100 -36 -253 -16 -354 45 -234 187 -456 435 -680 69 -61 53 -56 -60
23 -94 65 -212 169 -278 246 -175 204 -255 508 -202 770 46 226 149 394 321
524 173 130 355 204 591 240 105 17 369 20 443 6z m463 -36 c33 -8 83 -27 109
-40 62 -32 64 -62 5 -81 -92 -30 -171 15 -201 115 -9 27 3 28 87 6z m-359
-269 c76 -11 93 -17 106 -37 35 -54 121 -134 204 -190 97 -64 326 -184 391
-203 l39 -12 -26 -17 c-64 -42 -133 -34 -238 27 -328 191 -502 314 -608 428
l-43 47 42 -15 c24 -8 83 -20 133 -28z m-526 -41 c32 -22 45 -60 31 -87 -16
-30 -28 -37 -66 -37 -76 0 -100 102 -30 130 32 13 40 12 65 -6z m1392 -49 c0
-7 -36 -50 -97 -115 l-52 -55 74 -39 c99 -50 182 -132 225 -219 28 -57 34 -83
38 -150 7 -141 -37 -275 -116 -349 -19 -18 -32 -26 -29 -18 3 8 18 44 33 80
19 46 27 84 28 130 1 95 -5 98 -77 38 -34 -28 -94 -66 -134 -84 -76 -36 -113
-45 -73 -17 84 57 155 141 201 239 33 69 37 129 13 179 -25 54 -111 127 -224
191 -73 41 -99 60 -84 62 11 2 41 -6 67 -17 l47 -20 30 52 c17 29 33 64 36 79
5 19 14 28 33 31 43 7 61 7 61 2z m173 -4 c27 -4 -48 -105 -116 -153 -32 -23
-30 -15 10 38 13 17 30 51 39 76 15 45 19 47 67 39z m-1785 -22 c83 -29 66
-149 -21 -149 -85 0 -107 123 -27 153 8 3 15 6 16 6 1 1 15 -4 32 -10z m386
-166 c42 -35 147 -82 229 -102 l67 -17 -60 -12 c-60 -13 -96 -8 -69 9 8 5 19
9 24 9 6 0 3 -5 -5 -10 -18 -11 -3 -12 25 -1 15 6 4 12 -48 26 -52 14 -82 16
-134 10 -38 -4 -81 -7 -98 -7 -28 0 -29 0 -7 -9 13 -5 20 -13 17 -19 -3 -5 -2
-10 4 -10 5 0 13 5 16 10 3 6 12 10 18 10 7 0 6 -4 -3 -10 -12 -7 -10 -11 10
-19 44 -17 4 -12 -64 9 -43 14 -64 25 -60 32 4 6 3 8 -3 5 -5 -3 -23 -3 -39 2
-28 7 -27 8 56 64 47 30 87 56 89 56 2 1 17 -11 35 -26z m-555 2 c35 -18 54
-65 41 -100 -26 -68 -150 -52 -161 20 -11 75 51 116 120 80z m3082 -52 c77
-46 67 -164 -18 -199 -93 -39 -191 55 -152 147 25 62 110 87 170 52z m-2411
-103 c0 -6 -24 -9 -52 -9 -43 1 -47 3 -23 8 50 11 75 11 75 1z m37 4 c-3 -3
-12 -4 -19 -1 -8 3 -5 6 6 6 11 1 17 -2 13 -5z m-587 -55 c-17 -57 -12 -189
10 -275 25 -99 84 -218 152 -309 73 -96 225 -253 333 -342 49 -42 131 -112
180 -157 50 -45 109 -100 133 -121 41 -37 42 -38 25 -58 -18 -19 -17 -20 4 -6
19 11 25 11 42 -5 28 -25 26 -33 -5 -33 -19 0 -24 3 -19 16 5 12 3 13 -5 5 -9
-9 -8 -18 5 -38 10 -16 13 -26 6 -26 -6 0 -11 5 -11 11 0 5 -24 33 -52 61 -29
28 -46 46 -38 42 9 -5 7 -1 -3 8 -11 10 -23 16 -27 13 -5 -3 -12 0 -16 6 -5 8
-3 9 6 4 9 -5 11 -4 6 3 -4 7 -13 12 -20 12 -6 0 -29 18 -49 40 -20 23 -37 37
-37 33 0 -4 -5 0 -11 10 -6 9 -14 15 -19 12 -4 -3 -34 23 -66 58 -32 34 -51
53 -43 42 8 -11 -15 5 -51 35 -312 266 -470 498 -487 715 -6 81 7 163 38 235
24 57 34 61 19 9z m-223 -24 c31 -36 29 -71 -6 -106 -35 -35 -77 -38 -113 -9
-43 33 -42 103 0 137 27 21 93 9 119 -22z m470 -2 c95 -35 103 -36 235 -37 76
-1 138 -2 138 -2 0 -1 -16 -25 -35 -54 -19 -29 -35 -60 -35 -69 0 -18 -38 -41
-66 -41 -16 0 -11 35 12 82 8 15 14 30 14 34 0 15 -49 -39 -60 -67 -7 -16 -14
-29 -16 -29 -2 0 -23 6 -46 14 -44 14 -142 34 -210 43 l-38 5 0 79 c0 43 2 79
5 79 2 0 48 -16 102 -37z m2421 -28 l32 -66 -66 -31 -67 -31 -37 43 c-33 38
-39 41 -59 31 l-22 -12 26 -30 c14 -17 25 -36 25 -42 0 -7 -44 -28 -98 -48
l-97 -36 -31 56 -32 56 52 25 c65 31 329 148 336 149 3 1 20 -28 38 -64z
m-1646 -122 c-24 -52 -27 -69 -26 -163 0 -91 3 -112 26 -162 38 -83 97 -164
174 -242 38 -39 62 -66 53 -60 -163 98 -276 204 -310 290 -31 81 -33 200 -2
265 21 46 88 129 104 129 4 0 -4 -26 -19 -57z m2466 -27 c32 -30 37 -40 37
-80 0 -124 -165 -156 -216 -41 -17 39 -19 51 -9 81 15 43 61 74 113 74 29 0
46 -8 75 -34z m-3180 -23 c-10 -2 -26 -2 -35 0 -10 3 -2 5 17 5 19 0 27 -2 18
-5z m-1968 -18 c58 -30 79 -119 39 -168 -11 -15 -38 -31 -60 -37 -54 -15 -107
10 -132 62 -16 32 -17 43 -7 73 24 72 96 103 160 70z m1427 -20 c52 -34 32
-124 -31 -145 -105 -34 -174 103 -76 153 37 18 69 16 107 -8z m3382 -72 c7
-27 15 -56 18 -65 4 -13 -7 -20 -48 -32 -29 -9 -58 -16 -64 -16 -14 0 -50 118
-40 128 7 8 82 30 105 31 11 1 20 -15 29 -46z m-2589 -8 c0 -7 20 -53 44 -101
25 -49 44 -89 43 -90 -1 -1 -77 -4 -169 -6 -112 -2 -169 1 -172 8 -2 6 13 11
38 11 22 1 55 2 71 3 17 1 51 -1 78 -4 26 -4 47 -5 47 -2 0 2 -63 25 -140 51
-127 43 -229 95 -237 120 -2 6 49 9 144 7 104 -2 161 2 193 11 48 15 60 13 60
-8z m-1899 -25 c13 0 19 -7 18 -22 -1 -27 -32 -123 -39 -122 -52 10 -110 30
-110 39 0 6 7 34 16 61 9 27 17 55 20 62 3 10 11 9 40 -3 20 -8 45 -15 55 -15z
m4209 -12 c0 -11 5 -38 12 -60 9 -32 9 -41 -2 -48 -11 -7 -69 -20 -105 -24 -5
-1 -16 19 -23 44 -24 80 -23 81 43 100 68 19 75 17 75 -12z m-3935 -74 c33 -9
61 -17 62 -18 5 -5 -47 -121 -54 -121 -4 0 -36 6 -71 14 -57 13 -63 16 -58 35
4 12 12 42 18 69 9 35 15 46 27 43 9 -3 43 -12 76 -22z m3664 -35 c7 -34 11
-62 9 -64 -4 -4 -110 -35 -118 -35 -4 0 -13 26 -20 58 -7 31 -14 62 -17 68 -2
6 17 15 44 21 89 19 88 20 102 -48z m-2721 -34 c26 -31 28 -57 5 -96 -32 -53
-109 -60 -150 -13 -13 14 -23 34 -23 45 0 31 29 79 53 89 36 15 90 3 115 -25z
m2428 -40 c11 -73 13 -70 -67 -80 l-54 -7 -17 59 c-9 31 -15 59 -13 61 5 5
105 29 125 31 12 1 18 -15 26 -64z m-1561 -84 c16 -16 72 -61 124 -100 69 -52
89 -72 77 -77 -9 -3 -25 -4 -36 -1 -10 3 -70 -4 -131 -14 -62 -11 -119 -18
-128 -16 -13 2 84 22 199 40 18 3 16 5 -10 6 -19 0 -98 17 -175 37 -77 20
-149 37 -160 38 -11 1 -40 15 -65 31 l-45 29 105 14 c58 7 125 19 150 27 61
19 60 19 95 -14z m-696 -115 c34 -36 33 -92 -3 -122 -61 -53 -156 -16 -156 61
0 52 36 85 93 85 33 0 49 -6 66 -24z m497 -8 l29 -33 -30 25 c-16 14 -34 28
-39 32 -6 5 -6 8 0 8 6 0 23 -15 40 -32z m55 -45 c13 -16 12 -17 -3 -4 -10 7
-18 15 -18 17 0 8 8 3 21 -13z m-2301 -8 c88 -45 78 -168 -16 -194 -24 -7 -42
-4 -72 9 -46 21 -62 44 -62 90 0 42 15 67 53 90 38 24 59 25 97 5z m1023 -62
l36 -58 -267 -6 c-147 -3 -269 -4 -271 -2 -6 4 -20 106 -16 113 2 3 111 7 243
8 l239 4 36 -59z m-679 10 c3 -21 6 -50 6 -65 0 -27 -1 -28 -60 -28 -59 0 -60
1 -60 28 0 15 -3 44 -6 65 l-7 37 60 0 60 0 7 -37z m3215 -5 c-4 -24 -8 -49
-9 -55 0 -9 -20 -13 -65 -13 l-65 0 0 55 0 55 74 0 73 0 -8 -42z m311 27 c0
-7 -5 -37 -11 -66 l-11 -52 -66 7 c-37 4 -67 8 -68 9 -1 1 2 28 8 60 l10 57
69 0 c54 0 69 -3 69 -15z m557 -19 c2 -1 -2 -30 -8 -64 l-11 -62 -187 6 c-102
4 -187 8 -189 9 -2 2 0 31 4 65 l7 62 191 -7 c105 -4 192 -8 193 -9z m858 -11
c30 -15 45 -35 58 -77 9 -27 -12 -87 -37 -103 -28 -19 -94 -22 -124 -6 -32 17
-55 68 -49 108 7 42 23 62 62 79 39 17 51 17 90 -1z m-579 -27 c-4 -18 -9 -49
-12 -69 l-6 -35 -56 4 c-32 2 -58 5 -60 7 -1 1 1 29 4 63 l7 62 65 0 65 0 -7
-32z m-1919 3 c52 -33 215 -151 270 -198 l52 -44 -17 -29 c-18 -31 -33 -36
-147 -44 -55 -4 -62 -3 -30 4 22 5 57 10 77 11 34 3 36 4 23 19 -18 19 -156
40 -268 40 -72 0 -77 2 -119 37 -23 20 -69 55 -101 79 -31 23 -54 45 -50 47 5
2 51 12 103 22 52 9 105 19 118 21 12 2 22 10 22 17 0 13 19 37 30 37 3 0 19
-9 37 -19z m2180 13 l29 -6 -12 -60 c-7 -33 -15 -62 -18 -65 -3 -3 -30 -2 -61
2 -46 5 -55 10 -51 23 3 9 8 38 12 65 6 45 8 47 39 47 18 0 46 -3 62 -6z
m-3001 -83 c79 -48 34 -162 -63 -161 -92 1 -111 141 -23 173 29 10 55 7 86
-12z m-488 -105 c37 -24 92 -58 122 -77 200 -123 443 -372 555 -569 5 -8 -43
35 -106 95 -63 61 -206 190 -319 287 -193 166 -344 308 -327 308 4 0 38 -20
75 -44z m714 -106 c14 -10 31 -33 38 -50 10 -25 10 -34 -4 -55 -24 -37 -58
-50 -118 -46 -31 2 -58 38 -58 77 0 74 85 119 142 74z m-924 -58 l78 -58 -203
-2 c-125 -2 -236 -8 -289 -18 -48 -8 -89 -12 -92 -9 -3 3 0 5 6 5 8 0 10 12 6
35 -4 25 -1 35 8 35 10 0 9 3 -2 9 -8 6 -17 8 -20 6 -4 -2 -7 2 -7 10 0 9 24
17 81 24 45 6 92 12 106 14 14 3 76 5 137 6 l113 1 78 -58z m1589 12 c-3 -3
-12 -4 -19 -1 -8 3 -5 6 6 6 11 1 17 -2 13 -5z m863 -49 c194 -34 433 -94 555
-140 615 -230 968 -713 870 -1189 -41 -196 -172 -400 -348 -539 -135 -106
-139 -101 -18 20 132 134 188 223 242 383 137 409 -92 855 -562 1095 -193 99
-415 172 -661 219 l-117 22 -72 77 c-52 56 -66 77 -52 77 10 0 84 -11 163 -25z
m-411 -51 c62 -70 177 -240 186 -274 5 -21 -4 -34 -53 -83 l-58 -57 -84 14
-85 15 73 -5 c44 -4 72 -2 72 4 0 5 -15 31 -32 58 -38 56 -50 60 -211 70
l-108 7 -34 51 c-18 28 -47 70 -65 94 l-32 42 154 0 155 0 26 60 c14 33 30 60
35 60 6 0 33 -25 61 -56z m-675 -3 c28 -26 90 -111 81 -111 -8 0 -35 27 -38
37 -1 4 -5 7 -9 6 -5 -2 -8 7 -8 20 -1 22 -1 22 -16 2 -16 -20 -16 -20 -10 1
7 23 -22 57 -44 52 -7 -2 -14 2 -17 8 -7 19 36 9 61 -15z m-1897 -7 c-3 -3
-12 -4 -19 -1 -8 3 -5 6 6 6 11 1 17 -2 13 -5z m1882 -8 c9 -10 8 -16 -4 -26
-12 -10 -13 -16 -3 -29 8 -11 6 -10 -8 2 -18 18 -18 18 0 29 14 8 16 12 5 19
-8 4 -20 3 -29 -4 -13 -11 -13 -10 -1 6 16 21 25 21 40 3z m-188 -55 c45 -45
40 -110 -12 -136 -68 -35 -139 0 -139 68 0 40 31 84 63 90 47 9 59 6 88 -22z
m210 -38 c13 -16 12 -17 -3 -4 -10 7 -18 15 -18 17 0 8 8 3 21 -13z m-379
-197 c115 -145 161 -346 112 -488 l-19 -53 -6 105 c-4 58 -12 126 -18 152 -23
99 -100 274 -161 363 -14 22 -30 47 -34 55 -10 20 78 -73 126 -134z m-645 50
c71 -14 181 -58 248 -97 19 -12 35 -22 35 -22 0 -1 -147 -2 -328 -2 -275 0
-343 -3 -427 -19 -311 -57 -468 -166 -469 -326 -2 -184 266 -349 662 -409 95
-15 414 -15 517 -1 253 35 420 137 525 319 62 109 78 146 94 224 l13 62 13
-60 c16 -78 8 -183 -21 -260 -75 -201 -319 -359 -634 -411 -148 -25 -449 -25
-585 0 -352 63 -612 199 -705 368 -26 46 -30 63 -30 128 1 94 34 170 101 229
60 52 222 135 307 157 37 9 66 19 63 21 -8 9 -182 -29 -270 -58 -324 -108
-486 -288 -486 -538 0 -182 56 -344 164 -476 l41 -50 -45 35 c-116 90 -226
237 -260 349 -27 86 -27 226 0 313 80 261 346 450 738 524 175 33 580 33 739
0z m1014 -55 c20 -20 29 -39 29 -61 0 -45 -47 -90 -93 -90 -97 0 -134 121 -52
168 37 21 84 14 116 -17z m1393 -72 c32 -38 33 -63 1 -94 -33 -34 -107 -35
-129 -3 -38 55 1 128 68 128 26 0 40 -7 60 -31z m-899 11 c4 -7 -3 -8 -22 -4
-38 9 -42 14 -10 14 14 0 29 -5 32 -10z m73 -7 c-10 -2 -28 -2 -40 0 -13 2 -5
4 17 4 22 1 32 -1 23 -4z m1053 -74 c31 -16 41 -54 25 -94 -31 -73 -130 -76
-155 -5 -25 74 58 138 130 99z m-643 -76 c33 -169 42 -302 23 -332 -5 -8 -18
-15 -28 -17 -10 -1 -25 -5 -34 -8 -21 -9 -26 20 -28 159 -1 55 -3 101 -5 102
-1 1 -16 -16 -34 -39 -21 -28 -34 -58 -38 -90 -5 -38 -10 -48 -22 -43 -28 10
-197 35 -244 35 -46 0 -48 1 -48 28 0 15 -6 55 -14 90 -9 43 -9 62 -2 63 31 3
100 -5 194 -21 l105 -17 76 73 c42 40 79 74 82 74 4 0 11 -26 17 -57z m876
-64 c14 -17 26 -39 26 -50 0 -36 -29 -78 -58 -85 -15 -3 -33 -8 -40 -10 -25
-7 -72 51 -72 89 0 81 93 117 144 56z m-452 -26 c10 -9 18 -27 18 -40 0 -28
-33 -63 -60 -63 -26 0 -60 34 -60 60 0 26 34 60 62 60 12 0 30 -7 40 -17z
m200 -90 c35 -32 17 -87 -33 -98 -37 -8 -69 16 -69 53 0 54 62 81 102 45z
m439 -56 c46 -35 50 -88 10 -128 -24 -23 -38 -29 -75 -29 -36 0 -48 5 -65 26
-47 60 -2 144 76 144 21 0 45 -6 54 -13z m-267 -73 c35 -34 5 -94 -48 -94 -38
0 -56 15 -56 49 0 52 68 82 104 45z m107 -170 c19 -53 -50 -97 -92 -58 -24 21
-24 42 -2 66 24 26 83 21 94 -8z m269 -32 c44 -55 9 -129 -66 -139 -55 -7 -98
28 -98 80 0 85 113 125 164 59z m-1552 -86 l118 -45 133 45 c73 26 135 43 138
40 3 -3 -6 -20 -19 -39 -21 -27 -43 -38 -124 -64 -147 -48 -142 -47 -211 -14
-34 17 -90 42 -125 57 -75 31 -70 27 -62 48 9 23 19 21 152 -28z m1282 -36
c23 -23 24 -33 10 -61 -20 -37 -110 -15 -110 27 0 19 40 54 62 54 10 0 27 -9
38 -20z m204 -151 c43 -51 31 -110 -29 -135 -44 -18 -90 -8 -115 24 -27 34
-25 74 6 111 21 26 33 31 69 31 36 0 48 -5 69 -31z m-284 -17 c52 -42 -9 -104
-65 -68 -29 19 -32 42 -8 68 21 23 45 23 73 0z m-1375 -100 c-6 -6 -34 11 -39
24 -4 11 0 10 18 -3 13 -10 23 -19 21 -21z m1446 -75 c68 -46 60 -130 -16
-155 -69 -23 -125 17 -125 88 0 25 7 43 23 57 42 39 72 41 118 10z m-280 -92
c81 -42 53 -165 -37 -165 -94 0 -138 88 -75 151 33 33 67 37 112 14z m-255
-100 c19 -28 14 -89 -8 -112 -16 -16 -97 -28 -131 -19 -20 5 -25 14 -30 49
-10 69 -2 84 51 95 80 17 100 14 118 -13z m-4003 -712 c47 -192 100 -410 118
-487 23 -94 36 -132 41 -120 4 11 21 84 38 164 18 80 65 287 106 461 41 174
74 319 74 322 0 4 46 7 101 7 l101 0 -5 -27 c-2 -16 -59 -244 -126 -508 -67
-264 -133 -525 -147 -580 -14 -55 -29 -117 -35 -138 l-10 -38 -102 3 -101 3
-14 45 c-16 54 -108 409 -227 875 -48 187 -90 345 -92 352 -4 10 18 13 95 13
l100 0 85 -347z m861 330 c-1 -7 -2 -297 -2 -643 l-2 -631 -97 3 -98 3 -3 410
c-2 226 -1 515 3 643 l7 233 97 -3 c69 -2 96 -6 95 -15z m803 -31 c32 -27 64
-55 70 -64 9 -10 13 -92 13 -307 l1 -293 -42 -37 c-24 -20 -60 -48 -81 -63
l-38 -28 -205 0 -205 0 0 -177 0 -178 -84 -62 c-54 -40 -90 -61 -100 -57 -14
6 -16 74 -16 660 l0 654 314 0 315 0 58 -48z m813 -57 l0 -105 -220 0 -220 0
0 -145 0 -145 105 0 105 0 0 -100 0 -100 -105 0 -105 0 0 -195 0 -195 220 0
220 0 0 -100 0 -100 -322 2 -323 3 -3 619 -2 620 -22 23 -21 23 346 0 347 0 0
-105z m360 -440 l0 -545 181 0 c168 0 181 -1 174 -17 -4 -10 -21 -55 -38 -100
l-31 -83 -243 0 -243 0 0 645 0 645 100 0 100 0 0 -545z m1135 474 l75 -72 0
-510 0 -511 -27 -23 c-16 -13 -51 -42 -79 -63 l-51 -40 -235 0 -234 0 -76 65
-76 66 -7 142 c-4 78 -5 308 -3 511 l3 369 75 68 75 69 242 0 243 0 75 -71z
m739 -171 c80 -334 245 -1009 252 -1030 5 -16 -4 -18 -99 -18 l-104 0 -26 98
c-14 53 -31 123 -38 155 l-12 57 -151 0 -152 0 -27 -117 c-15 -65 -32 -135
-38 -155 l-10 -38 -105 0 c-96 0 -105 2 -100 18 22 74 109 434 171 707 42 182
88 383 102 448 l27 117 126 0 126 0 58 -242z m943 204 c26 -22 63 -53 81 -69
l32 -31 0 -506 0 -506 -44 -40 c-24 -22 -60 -53 -81 -70 l-38 -30 -283 0 -284
0 0 645 0 645 284 0 284 0 49 -38z"/>
<path d="M4930 5645 c0 -2 6 -8 13 -14 10 -8 14 -7 14 2 0 8 -6 14 -14 14 -7
0 -13 -1 -13 -2z"/>
<path d="M4920 5626 c0 -2 8 -10 18 -17 15 -13 16 -12 3 4 -13 16 -21 21 -21
13z"/>
<path d="M3743 3272 l-163 -2 0 -215 0 -215 139 0 c76 0 151 -2 167 -5 59 -11
63 2 65 203 1 179 1 183 -22 210 l-24 27 -162 -3z"/>
<path d="M6044 3273 c-131 -3 -143 -5 -162 -26 -20 -21 -21 -33 -23 -404 l-3
-381 28 -36 27 -36 149 0 149 0 25 33 26 34 0 385 0 384 -28 27 c-15 15 -32
26 -38 25 -5 -1 -72 -4 -150 -5z"/>
<path d="M6928 3135 c-4 -11 -16 -69 -28 -130 -22 -111 -56 -265 -66 -297 -5
-16 4 -18 101 -18 82 0 106 3 102 13 -4 12 -92 393 -99 432 l-4 20 -6 -20z"/>
<path d="M7640 2830 l0 -440 144 0 144 0 26 34 26 35 0 378 -1 378 -24 28 -24
27 -146 0 -145 0 0 -440z"/>
</g>
</svg>
