<svg xmlns="http://www.w3.org/2000/svg" version="1.1" xmlns:xlink="http://www.w3.org/1999/xlink" xmlns:svgjs="http://svgjs.dev/svgjs" width="1500" height="503" viewBox="0 0 1500 503"><g transform="matrix(1,0,0,1,-0.9090909090909918,-0.8242015157031233)"><svg viewBox="0 0 396 133" data-background-color="#000000" preserveAspectRatio="xMidYMid meet" height="503" width="1500" xmlns="http://www.w3.org/2000/svg" xmlns:xlink="http://www.w3.org/1999/xlink"><g id="tight-bounds" transform="matrix(1,0,0,1,0.2400000000000091,0.2181796473419979)"><svg viewBox="0 0 395.52 132.56389032961926" height="132.56389032961926" width="395.52"><g><svg viewBox="0 0 395.52 132.56389032961926" height="132.56389032961926" width="395.52"><g><svg viewBox="0 0 395.52 132.56389032961926" height="132.56389032961926" width="395.52"><g id="textblocktransform"><svg viewBox="0 0 395.52 132.56389032961926" height="132.56389032961926" width="395.52" id="textblock"><g><svg viewBox="0 0 395.52 132.56389032961926" height="132.56389032961926" width="395.52"><g transform="matrix(1,0,0,1,0,0)"><svg width="395.52" viewBox="124.35000000000004 -36.389131914175415 243.09999999999997 77.77913191417542" height="132.56389032961926" data-palette-color="#4fff09"><svg></svg><svg></svg><g class="wordmark-text-0" data-fill-palette-color="primary" id="text-0"><path d="M190.7-1.4c0.467 0.733 0.7 1.217 0.7 1.45v0c0 0.133-0.083 0.217-0.25 0.25-0.167 0.033-0.307 0.05-0.42 0.05-0.12 0-0.213 0-0.28 0v0l-5.65 0.15c-0.267 0-0.473-0.117-0.62-0.35-0.153-0.233-0.363-0.65-0.63-1.25v0c-0.167-0.5-0.467-1.167-0.9-2v0c-0.667-1.2-1.817-3.45-3.45-6.75v0l-2.55-4.95 0.15 2.65 0.25 3.8c0.2 4.467 0.367 6.933 0.5 7.4v0c0.033 0.133 0.05 0.3 0.05 0.5v0c0 0.6-0.317 0.9-0.95 0.9v0c-0.2 0-0.367-0.017-0.5-0.05v0c-0.533-0.067-1.833 0-3.9 0.2v0c-1.4 0.133-2.25 0.2-2.55 0.2v0c-0.433 0-0.723-0.083-0.87-0.25-0.153-0.167-0.23-0.45-0.23-0.85v0l0.05-1.15-0.1-2.9c-0.2-3.467-0.3-6.483-0.3-9.05v0c0-1.333 0.05-2.25 0.15-2.75v0c0.167-0.833 0.25-3.183 0.25-7.05v0c0-4.033-0.067-7.083-0.2-9.15v0c-0.033-0.267-0.05-0.633-0.05-1.1v0c0-0.533 0.05-0.917 0.15-1.15 0.1-0.233 0.21-0.36 0.33-0.38 0.113-0.013 0.32-0.02 0.62-0.02v0l1.1-0.1c2.3-0.267 4.133-0.4 5.5-0.4v0c3.733 0 6.543 0.957 8.43 2.87 1.88 1.92 2.82 4.413 2.82 7.48v0c0 2.433-0.783 4.767-2.35 7v0c-0.667 0.967-1.433 1.833-2.3 2.6v0l3.5 6.35c2.567 4.6 4.067 7.2 4.5 7.8zM176.35-21.45c0.5 0 0.95-0.1 1.35-0.3v0c0.933-0.433 1.4-1.317 1.4-2.65v0c0-0.967-0.15-1.683-0.45-2.15-0.3-0.467-0.683-0.7-1.15-0.7v0c-0.367 0-0.683 0.133-0.95 0.4v0c-0.033 0.033-0.033 0.267 0 0.7 0.033 0.433 0.05 0.867 0.05 1.3v0c0 0.367-0.017 0.633-0.05 0.8v0c-0.133 0.567-0.2 1.15-0.2 1.75v0l-0.05 0.45zM221.05-1c0.167 0.333 0.25 0.55 0.25 0.65v0c0 0.267-0.3 0.4-0.9 0.4v0h-3.6c-0.133 0-0.267-0.117-0.4-0.35-0.133-0.233-0.25-0.467-0.35-0.7-0.1-0.233-0.183-0.433-0.25-0.6v0c-0.167-0.333-0.473-1.1-0.92-2.3-0.453-1.2-0.797-2.15-1.03-2.85v0c-0.1-0.333-0.3-0.823-0.6-1.47-0.3-0.653-0.517-1.113-0.65-1.38v0c-0.133-0.4-0.257-0.667-0.37-0.8-0.12-0.133-0.297-0.2-0.53-0.2v0c-0.233 0-0.523 0.017-0.87 0.05-0.353 0.033-0.73 0.067-1.13 0.1v0c-0.267 0.067-1.1 0.1-2.5 0.1v0c-0.967 0-1.917 0.033-2.85 0.1v0c-0.3 0.033-0.833 0.05-1.6 0.05v0l-2.65-0.05c-0.167 0-0.29 0.067-0.37 0.2-0.087 0.133-0.147 0.29-0.18 0.47-0.033 0.187-0.067 0.33-0.1 0.43v0l-0.3 1.25c-0.1 0.467-0.223 1.007-0.37 1.62-0.153 0.62-0.28 1.197-0.38 1.73v0l-0.55 2.15-0.4 1.45c-0.1 0.4-0.19 0.657-0.27 0.77-0.087 0.12-0.213 0.18-0.38 0.18v0h-2.95c-0.167 0-0.25-0.067-0.25-0.2v0c0-0.067 0.067-0.3 0.2-0.7v0c0.267-0.633 0.5-1.267 0.7-1.9v0c1.233-4.133 1.967-6.833 2.2-8.1v0c0.3-1.667 0.917-3.817 1.85-6.45v0c0.3-1.133 0.583-2.167 0.85-3.1v0c0.1-0.467 0.25-1.033 0.45-1.7v0c0.633-2.333 1.267-4.517 1.9-6.55v0l1.25-4c0.267-1.033 0.6-2.1 1-3.2v0c0.2-0.5 0.433-0.617 0.7-0.35v0c0.2 0.133 0.35 0.367 0.45 0.7 0.1 0.333 0.167 0.567 0.2 0.7v0c0.1 0.4 0.983 2.4 2.65 6v0c0.667 1.367 1.383 3.15 2.15 5.35v0c0.333 0.967 1.25 3.05 2.75 6.25v0c0.767 1.567 1.267 2.65 1.5 3.25v0c0.533 1.167 1.967 4 4.3 8.5v0l0.6 1.25c0.767 1.7 1.35 2.783 1.75 3.25zM207.95-17.5c0.233-0.033 0.433-0.05 0.6-0.05 0.167 0 0.3-0.017 0.4-0.05 0.1-0.033 0.15-0.083 0.15-0.15v0c0-0.067-0.05-0.2-0.15-0.4v0c-0.167-0.3-0.55-1.143-1.15-2.53-0.6-1.38-1.017-2.42-1.25-3.12v0c-0.333-0.8-0.59-1.467-0.77-2-0.187-0.533-0.33-0.9-0.43-1.1v0c-0.067-0.167-0.14-0.333-0.22-0.5-0.087-0.167-0.163-0.3-0.23-0.4-0.067-0.1-0.133-0.15-0.2-0.15v0c-0.1 0-0.207 0.25-0.32 0.75-0.12 0.5-0.213 0.883-0.28 1.15v0c-0.6 1.933-1.033 3.4-1.3 4.4v0c-0.133 0.5-0.323 1.107-0.57 1.82-0.253 0.72-0.43 1.213-0.53 1.48v0c-0.1 0.333-0.15 0.6-0.15 0.8v0c0 0.2 0.15 0.3 0.45 0.3v0c0.7 0 1.777-0.023 3.23-0.07 1.447-0.053 2.353-0.113 2.72-0.18zM243.65-30.7c1.967 1.733 3.267 3.79 3.9 6.17 0.633 2.387 0.95 5.013 0.95 7.88v0c0 1.5-0.25 3.183-0.75 5.05-0.5 1.867-1.19 3.6-2.07 5.2-0.887 1.6-1.913 2.783-3.08 3.55v0c-1.6 1.033-3.583 1.757-5.95 2.17-2.367 0.42-4.233 0.63-5.6 0.63v0h-5.1c-0.367 0-0.6-0.083-0.7-0.25-0.1-0.167-0.1-0.35 0-0.55v0c0.033-0.1 0.05-0.233 0.05-0.4v0c0-0.133-0.007-0.31-0.02-0.53-0.02-0.213-0.03-0.52-0.03-0.92v0c0-1.1-0.017-2.183-0.05-3.25v0l-0.1-9.05 0.05-10.05c0-0.867-0.017-1.71-0.05-2.53-0.033-0.813-0.067-1.52-0.1-2.12v0l-0.1-3.15c0.033-0.767 0.083-1.3 0.15-1.6 0.067-0.3 0.2-0.45 0.4-0.45v0h0.15c0.133 0 0.283 0.023 0.45 0.07 0.167 0.053 0.317 0.08 0.45 0.08v0c0.267 0 0.593-0.017 0.98-0.05 0.38-0.033 0.77-0.05 1.17-0.05v0l1.95 0.05c1.867 0 3.55 0.083 5.05 0.25v0c0.133 0 0.577 0.033 1.33 0.1 0.747 0.067 1.713 0.417 2.9 1.05 1.18 0.633 2.437 1.533 3.77 2.7zM233.5-1.95c2.3 0.133 4.4-0.283 6.3-1.25v0c1.833-0.933 3.35-2.483 4.55-4.65 1.2-2.167 1.8-5.1 1.8-8.8v0c0-3.667-0.59-6.61-1.77-8.83-1.187-2.213-2.68-3.87-4.48-4.97v0c-1.833-1.1-3.917-1.667-6.25-1.7v0l-0.2 4.55c-0.1 1.633-0.15 3.883-0.15 6.75v0c0 0.267 0.05 1.75 0.15 4.45v0c0.1 1.133 0.15 2.2 0.15 3.2v0l-0.05 6.45c-0.033 1-0.05 2.6-0.05 4.8zM257.3-33.7c0.067 0.767 0.227 1.6 0.48 2.5 0.247 0.9 0.603 2.067 1.07 3.5v0c0.333 1.033 1.193 3.35 2.58 6.95 1.38 3.6 2.303 5.917 2.77 6.95v0c0.433 1.1 1.017 2.783 1.75 5.05v0l1.1 3.4 0.65-1.15 1.4-2.75c0.2-0.467 0.817-1.683 1.85-3.65v0c2.167-4.033 3.583-6.833 4.25-8.4v0c0.5-1.167 1.217-2.733 2.15-4.7v0c0.233-0.533 0.527-1.177 0.88-1.93 0.347-0.747 0.587-1.287 0.72-1.62v0c0.067-0.2 0.277-0.827 0.63-1.88 0.347-1.047 0.697-1.937 1.05-2.67 0.347-0.733 0.637-1.1 0.87-1.1v0c0.267 0 0.4 0.383 0.4 1.15v0c0 0.433-0.017 0.86-0.05 1.28-0.033 0.413-0.067 0.787-0.1 1.12v0l-0.15 1.8c-0.1 1.733-0.15 4.933-0.15 9.6v0c0 1.633-0.023 3.707-0.07 6.22-0.053 2.52-0.113 4.213-0.18 5.08v0l-0.05 8.15v0.15c0 0.333-0.183 0.5-0.55 0.5v0c-0.9 0-1.483-0.017-1.75-0.05v0c-0.167-0.033-0.25-0.167-0.25-0.4v0l0.05-0.85c0-1.433 0.033-3.773 0.1-7.02 0.067-3.253 0.15-5.413 0.25-6.48v0c0.033-0.8 0.05-2.483 0.05-5.05v0c0-1.4-0.017-2.467-0.05-3.2v0c-0.7 1.233-1.117 2-1.25 2.3v0c-0.267 0.467-0.65 1.2-1.15 2.2v0c-0.1 0.2-0.217 0.433-0.35 0.7-0.133 0.267-0.283 0.533-0.45 0.8v0c-0.433 0.867-1.4 2.817-2.9 5.85v0l-1.6 3.3c-0.333 0.567-0.883 1.6-1.65 3.1-0.767 1.5-1.283 2.517-1.55 3.05v0l-0.8 1.6c-0.2 0.433-0.44 0.817-0.72 1.15-0.287 0.333-0.53 0.5-0.73 0.5v0c-0.2 0-0.34-0.05-0.42-0.15-0.087-0.1-0.163-0.257-0.23-0.47-0.067-0.22-0.117-0.38-0.15-0.48v0c-0.067-0.2-0.433-1.26-1.1-3.18-0.667-1.913-1.183-3.287-1.55-4.12v0c-0.467-1.133-1.067-2.617-1.8-4.45-0.733-1.833-1.217-3.15-1.45-3.95v0c-0.3-0.833-0.567-1.633-0.8-2.4v0l-0.75-2.35c-0.633-1.867-1-2.983-1.1-3.35v0l-0.1 1.85c-0.033 0.7-0.05 1.767-0.05 3.2v0c0 4.733-0.067 8.033-0.2 9.9v0c-0.033 0.467-0.05 1.417-0.05 2.85v0l0.05 5.05v0.15c0 0.6-0.233 0.867-0.7 0.8v0c-0.167-0.067-0.433-0.1-0.8-0.1-0.367 0-0.633 0-0.8 0v0c-0.167 0-0.25-0.117-0.25-0.35v0l0.05-0.9-0.1-4.8-0.15-10.45c0-1.7 0.033-3.743 0.1-6.13 0.067-2.38 0.133-3.987 0.2-4.82v0c0.1-1.1 0.177-2.31 0.23-3.63 0.047-1.313 0.07-2.387 0.07-3.22v0-0.2c0-0.433 0.05-0.677 0.15-0.73 0.1-0.047 0.267-0.053 0.5-0.02v0h0.4c0.533 0 0.95-0.017 1.25-0.05v0c0.567 0 0.9 0.483 1 1.45zM289.45-35.25c0.433 0.033 0.86 0.04 1.28 0.02 0.413-0.013 0.77-0.02 1.07-0.02v0c0.733 0 1.267 0.017 1.6 0.05v0c0.4 0.033 0.683 0.117 0.85 0.25 0.167 0.133 0.25 0.317 0.25 0.55v0c0 0.167-0.017 0.35-0.05 0.55-0.033 0.2-0.067 0.383-0.1 0.55v0c-0.367 2.833-0.567 5.75-0.6 8.75v0c-0.033 0.867-0.05 2.2-0.05 4v0l0.05 6.05c0.033 0.5 0.05 1.017 0.05 1.55v0l0.05 2c0.067 1.733 0.1 3.017 0.1 3.85v0c0 0.633-0.017 1.017-0.05 1.15v0c-0.033 0.133-0.05 0.517-0.05 1.15v0l0.05 2.75c0.033 0.4 0.05 0.9 0.05 1.5v0c0.033 0.433-0.09 0.71-0.37 0.83-0.287 0.113-0.663 0.153-1.13 0.12v0h-4.55c-0.5 0.033-0.817-0.073-0.95-0.32-0.133-0.253-0.217-0.663-0.25-1.23v0c-0.067-0.233-0.033-0.85 0.1-1.85v0c0.133-0.933 0.2-1.733 0.2-2.4v0c0-0.233 0.117-2.483 0.35-6.75v0c0.2-3.133 0.3-4.85 0.3-5.15v0l0.1-4.9 0.1-4.55 0.1-2.7 0.1-1.8v-2.1c0-1.3 0.333-1.95 1-1.95v0c0.167 0 0.3 0.017 0.4 0.05zM322.7-2.05c0.9 0.9 1.35 1.517 1.35 1.85v0c0 0.067-0.083 0.183-0.25 0.35v0c-0.3 0.2-1.05 0.3-2.25 0.3v0c-0.867 0-1.417-0.057-1.65-0.17-0.233-0.12-0.407-0.313-0.52-0.58-0.12-0.267-0.213-0.467-0.28-0.6v0c-0.1-0.2-0.507-0.777-1.22-1.73-0.72-0.947-1.263-1.67-1.63-2.17v0c-1.767-2.267-3.3-4.317-4.6-6.15v0c-0.8-1.133-2.283-3.083-4.45-5.85v0l-0.8-1-3.45-4.3-0.2 2c-0.133 1-0.167 2.2-0.1 3.6v0c0.1 0.933 0.167 3.35 0.2 7.25 0.033 3.9 0.05 6.75 0.05 8.55v0c0 0.533-0.2 0.877-0.6 1.03-0.4 0.147-0.867 0.22-1.4 0.22v0c-0.233 0-0.383-0.1-0.45-0.3-0.067-0.2-0.107-0.417-0.12-0.65-0.02-0.233-0.03-0.383-0.03-0.45v0c-0.067-0.533-0.1-1.317-0.1-2.35v0c0-0.667 0.017-1.167 0.05-1.5v0c0.033-1.8 0.083-4.943 0.15-9.43 0.067-4.48 0.1-8.503 0.1-12.07v0c0-3.833-0.05-6.067-0.15-6.7v0c-0.033-0.267-0.05-0.617-0.05-1.05v0c0-0.5 0.073-0.817 0.22-0.95 0.153-0.133 0.38-0.2 0.68-0.2v0c0.667 0 1.317 0.017 1.95 0.05v0l5.45 0.1c2 0 4.083 0.35 6.25 1.05 2.167 0.7 3.25 2 3.25 3.9v0c0 1.8-0.667 3.2-2 4.2-1.333 1-2.823 1.683-4.47 2.05-1.653 0.367-3.097 0.55-4.33 0.55v0c-0.433 0-0.667-0.017-0.7-0.05v0c0.2 0.2 1.517 1.967 3.95 5.3v0c7.333 9.833 11.383 15.133 12.15 15.9zM302.8-25.25c1.1 0 1.933-0.017 2.5-0.05v0c1.933-0.067 3.433-0.2 4.5-0.4v0c1.533-0.267 2.69-0.633 3.47-1.1 0.787-0.467 1.18-1.2 1.18-2.2v0c0-0.667-0.35-1.243-1.05-1.73-0.7-0.48-1.54-0.847-2.52-1.1-0.987-0.247-1.847-0.37-2.58-0.37v0c-0.833-0.033-2-0.05-3.5-0.05v0h-1.7z" fill="#4fff09" fill-rule="nonzero" stroke="none" stroke-width="1" stroke-linecap="butt" stroke-linejoin="miter" stroke-miterlimit="10" stroke-dasharray="" stroke-dashoffset="0" font-family="none" font-weight="none" font-size="none" text-anchor="none" style="mix-blend-mode: normal" data-fill-palette-color="primary" opacity="1"></path><path d="M127 6.19c-0.033 0.4-0.067 2.733-0.1 7-0.033 4.267-0.05 8.65-0.05 13.15v0c0 1.933 0.243 3.667 0.73 5.2 0.48 1.533 1.153 2.733 2.02 3.6 0.867 0.867 1.833 1.3 2.9 1.3v0c1.467 0 2.527-0.427 3.18-1.28 0.647-0.847 0.97-1.737 0.97-2.67v0l0.1-3.05c0.1-5 0.15-7.767 0.15-8.3v0c0-0.767 0.033-2.283 0.1-4.55v0c0.1-1.9 0.15-3.767 0.15-5.6v0c0-1.633-0.067-2.783-0.2-3.45v0c-0.1-0.4-0.15-0.717-0.15-0.95v0c0-0.467 0.11-0.757 0.33-0.87 0.213-0.12 0.43-0.173 0.65-0.16 0.213 0.02 0.353 0.03 0.42 0.03v0c0.333 0.033 0.71 0.04 1.13 0.02 0.413-0.013 0.787-0.02 1.12-0.02v0h1.3c0.533 0 0.843 0.073 0.93 0.22 0.08 0.153 0.137 0.48 0.17 0.98v0c0.067 0.733 0.1 1.633 0.1 2.7v0c0 0.733-0.017 1.267-0.05 1.6v0c-0.033 0.333-0.017 1.733 0.05 4.2v0c0.167 4.067 0.25 7.417 0.25 10.05v0 3.05c-0.067 4.3-1.093 7.407-3.08 9.32-1.98 1.92-4.37 2.88-7.17 2.88v0c-2.133 0-3.85-0.707-5.15-2.12-1.3-1.42-2.217-2.997-2.75-4.73v0c-0.233-0.767-0.407-1.96-0.52-3.58-0.12-1.613-0.18-3.27-0.18-4.97v0c0-1.9 0.05-3.167 0.15-3.8v0c0.067-0.467 0.1-2.017 0.1-4.65v0c0-4.2-0.067-7.233-0.2-9.1v0c-0.033-0.2-0.05-0.467-0.05-0.8v0c0-1.033 0.317-1.417 0.95-1.15v0l0.55 0.05c0.133 0 0.277-0.017 0.43-0.05 0.147-0.033 0.303-0.05 0.47-0.05v0c0.167 0 0.25 0.183 0.25 0.55zM149.65 5.54l4.9-0.05 5.45 0.05c3.467 0 5.717 0.05 6.75 0.15v0c1.9 0.167 3.25 0.25 4.05 0.25v0c0.533 0 0.883-0.017 1.05-0.05v0l0.35-0.05c0.233 0 0.377 0.043 0.43 0.13 0.047 0.08 0.063 0.177 0.05 0.29-0.02 0.12-0.03 0.213-0.03 0.28v0c0 0.3-0.067 0.917-0.2 1.85v0c-0.033 0.333-0.173 0.667-0.42 1-0.253 0.333-0.647 0.8-1.18 1.4v0c0.033-0.033-0.35 0.4-1.15 1.3v0c-1.3 1.733-3.017 4.2-5.15 7.4v0c-0.467 0.733-2.333 3.233-5.6 7.5v0l-0.8 1.05c-0.733 1-1.817 2.417-3.25 4.25v0c-0.3 0.333-0.717 0.95-1.25 1.85v0l-0.75 1.2-1.3 2.15c1.567 0.033 3.683 0.05 6.35 0.05v0l6.95 0.05 2.05 0.1 2.4 0.1 3.3-0.05h0.1c0.267 0 0.393 0.073 0.38 0.22-0.02 0.153-0.03 0.247-0.03 0.28v0l0.05 1.6c0 0.4-0.217 0.6-0.65 0.6v0c-0.1 0-0.35-0.033-0.75-0.1v0c-0.967-0.167-2.033-0.217-3.2-0.15v0l-4.85 0.1-6.8 0.15c-4.967 0-7.867 0.05-8.7 0.15v0h-0.3c-0.333 0-0.533-0.067-0.6-0.2-0.067-0.133-0.09-0.267-0.07-0.4 0.013-0.133 0.02-0.233 0.02-0.3v0c0-0.5 0.3-1.183 0.9-2.05v0c0.5-0.667 0.85-1.15 1.05-1.45v0c3.333-4.533 5.367-7.25 6.1-8.15v0l3.45-4.4c2.933-3.733 4.667-5.933 5.2-6.6v0c1.1-1.333 2.383-3.133 3.85-5.4v0l2-3.15h-3c-2.3 0-3.767-0.017-4.4-0.05v0c-1.033 0-2-0.017-2.9-0.05v0c-3-0.067-5.5-0.1-7.5-0.1v0c-1.433 0-2.45 0.033-3.05 0.1v0c-1.267 0.1-1.9-0.133-1.9-0.7v0c0-0.667 0.067-1.317 0.2-1.95v0c0.033-0.3 0.233-0.45 0.6-0.45v0c0.167 0 0.45 0.04 0.85 0.12 0.4 0.087 0.717 0.13 0.95 0.13zM180.45 7.34l1.25 4.15c0.7 2.2 1.517 4.367 2.45 6.5v0c0.433 1 0.9 2.267 1.4 3.8v0c0.533 1.6 0.8 2.4 0.8 2.4v0l0.4-1.25 0.75-2.15c0.333-1 0.823-2.36 1.47-4.08 0.653-1.713 1.097-2.803 1.33-3.27v0c0.933-2.7 1.533-4.617 1.8-5.75v0c0.167-0.667 0.383-1.083 0.65-1.25 0.267-0.167 0.523-0.24 0.77-0.22 0.253 0.013 0.413 0.02 0.48 0.02v0l2.7-0.05c0.833 0 1.55 0.033 2.15 0.1v0c0.7 0.1 1.05 0.267 1.05 0.5v0c0 0.033-0.033 0.183-0.1 0.45v0c-0.067 0.167-0.14 0.373-0.22 0.62-0.087 0.253-0.18 0.53-0.28 0.83v0c-0.8 2.367-1.317 3.817-1.55 4.35v0c-0.433 1.267-1.167 3.167-2.2 5.7v0l-2.1 5.5c-0.733 1.8-1.667 4.133-2.8 7-1.133 2.867-1.75 4.5-1.85 4.9v0c-0.133 0.4-0.273 1.04-0.42 1.92-0.153 0.887-0.263 1.463-0.33 1.73v0c-0.1 0.4-0.21 0.673-0.33 0.82-0.113 0.153-0.27 0.213-0.47 0.18v0l-2.95 0.05-3.95 0.05c-0.433 0-0.65-0.1-0.65-0.3v0c0-0.1 0.027-0.193 0.08-0.28 0.047-0.08 0.087-0.17 0.12-0.27v0l1.8-4.85c0.1-0.533 0.35-1.25 0.75-2.15v0c0.1-0.267 0.2-0.523 0.3-0.77 0.1-0.253 0.183-0.513 0.25-0.78v0c0.067-0.2 0.167-0.433 0.3-0.7 0.133-0.267 0.217-0.493 0.25-0.68 0.033-0.18 0.017-0.353-0.05-0.52v0c0 0-0.183-0.517-0.55-1.55v0c-0.467-1.467-0.783-2.4-0.95-2.8v0c-0.2-0.5-0.467-1.317-0.8-2.45v0c-0.233-0.767-0.45-1.45-0.65-2.05v0c-0.267-0.667-0.867-2.35-1.8-5.05-0.933-2.7-1.617-4.75-2.05-6.15v0c-0.2-0.6-0.4-1.117-0.6-1.55v0c-0.233-0.533-0.35-0.9-0.35-1.1v0c0-0.233 0.127-0.393 0.38-0.48 0.247-0.08 0.62-0.137 1.12-0.17v0c0.5-0.033 1.333-0.017 2.5 0.05v0c0.267 0.033 0.433 0.1 0.5 0.2 0.067 0.1 0.1 0.223 0.1 0.37 0 0.153 0.033 0.313 0.1 0.48zM229 39.74c0.167 0.333 0.25 0.55 0.25 0.65v0c0 0.267-0.3 0.4-0.9 0.4v0h-3.6c-0.133 0-0.267-0.117-0.4-0.35-0.133-0.233-0.25-0.467-0.35-0.7-0.1-0.233-0.183-0.433-0.25-0.6v0c-0.167-0.333-0.473-1.1-0.92-2.3-0.453-1.2-0.797-2.15-1.03-2.85v0c-0.1-0.333-0.3-0.823-0.6-1.47-0.3-0.653-0.517-1.113-0.65-1.38v0c-0.133-0.4-0.257-0.667-0.37-0.8-0.12-0.133-0.297-0.2-0.53-0.2v0c-0.233 0-0.523 0.017-0.87 0.05-0.353 0.033-0.73 0.067-1.13 0.1v0c-0.267 0.067-1.1 0.1-2.5 0.1v0c-0.967 0-1.917 0.033-2.85 0.1v0c-0.3 0.033-0.833 0.05-1.6 0.05v0l-2.65-0.05c-0.167 0-0.29 0.067-0.37 0.2-0.087 0.133-0.147 0.29-0.18 0.47-0.033 0.187-0.067 0.33-0.1 0.43v0l-0.3 1.25c-0.1 0.467-0.227 1.007-0.38 1.62-0.147 0.62-0.27 1.197-0.37 1.73v0l-0.55 2.15-0.4 1.45c-0.1 0.4-0.19 0.657-0.27 0.77-0.087 0.12-0.213 0.18-0.38 0.18v0h-2.95c-0.167 0-0.25-0.067-0.25-0.2v0c0-0.067 0.067-0.3 0.2-0.7v0c0.267-0.633 0.5-1.267 0.7-1.9v0c1.233-4.133 1.967-6.833 2.2-8.1v0c0.3-1.667 0.917-3.817 1.85-6.45v0c0.3-1.133 0.583-2.167 0.85-3.1v0c0.1-0.467 0.25-1.033 0.45-1.7v0c0.633-2.333 1.267-4.517 1.9-6.55v0l1.25-4c0.267-1.033 0.6-2.1 1-3.2v0c0.2-0.5 0.433-0.617 0.7-0.35v0c0.2 0.133 0.35 0.367 0.45 0.7 0.1 0.333 0.167 0.567 0.2 0.7v0c0.1 0.4 0.983 2.4 2.65 6v0c0.667 1.367 1.383 3.15 2.15 5.35v0c0.333 0.967 1.25 3.05 2.75 6.25v0c0.767 1.567 1.267 2.65 1.5 3.25v0c0.533 1.167 1.967 4 4.3 8.5v0l0.6 1.25c0.767 1.7 1.35 2.783 1.75 3.25zM215.9 23.24c0.233-0.033 0.433-0.05 0.6-0.05 0.167 0 0.3-0.017 0.4-0.05 0.1-0.033 0.15-0.083 0.15-0.15v0c0-0.067-0.05-0.2-0.15-0.4v0c-0.167-0.3-0.55-1.143-1.15-2.53-0.6-1.38-1.017-2.42-1.25-3.12v0c-0.333-0.8-0.59-1.467-0.77-2-0.187-0.533-0.33-0.9-0.43-1.1v0c-0.067-0.167-0.14-0.333-0.22-0.5-0.087-0.167-0.163-0.3-0.23-0.4-0.067-0.1-0.133-0.15-0.2-0.15v0c-0.1 0-0.207 0.25-0.32 0.75-0.12 0.5-0.213 0.883-0.28 1.15v0c-0.6 1.933-1.033 3.4-1.3 4.4v0c-0.133 0.5-0.323 1.107-0.57 1.82-0.253 0.72-0.43 1.213-0.53 1.48v0c-0.1 0.333-0.15 0.6-0.15 0.8v0c0 0.2 0.15 0.3 0.45 0.3v0c0.7 0 1.777-0.023 3.23-0.07 1.447-0.053 2.353-0.113 2.72-0.18zM246.85 9.59c0-2.067 0.017-3.35 0.05-3.85v0c0-0.633 0.217-1.017 0.65-1.15 0.433-0.133 1.067-0.2 1.9-0.2v0c0.733 0 1.677-0.043 2.83-0.13 1.147-0.08 2.037-0.17 2.67-0.27v0c0.467-0.033 0.8 0.043 1 0.23 0.2 0.18 0.3 0.487 0.3 0.92v0c0 0.133-0.033 0.5-0.1 1.1v0c-0.067 0.5-0.1 3.817-0.1 9.95v0 11.3c0 1.7 0.027 3.573 0.08 5.62 0.047 2.053 0.103 3.897 0.17 5.53 0.067 1.633 0.1 2.083 0.1 1.35v0c0 0.533-0.267 0.8-0.8 0.8v0c-0.233 0-0.433-0.017-0.6-0.05v0c-0.133-0.033-0.4-0.05-0.8-0.05v0c-0.4 0-1.033 0.033-1.9 0.1v0c-0.933 0.067-1.583 0.1-1.95 0.1v0c-0.633 0-1.107-0.133-1.42-0.4-0.32-0.267-0.647-0.75-0.98-1.45v0l-0.85-1.7c-1-2.233-1.883-3.983-2.65-5.25v0c-0.433-0.733-1.533-2.75-3.3-6.05v0l-2.2-4.15v1.9 1.15c0 0.267-0.007 0.6-0.02 1-0.02 0.4-0.013 0.85 0.02 1.35v0c0 1.733 0.027 4 0.08 6.8 0.047 2.8 0.12 4.483 0.22 5.05v0c0.033 0.167 0.05 0.367 0.05 0.6v0c0 0.333-0.067 0.54-0.2 0.62-0.133 0.087-0.383 0.113-0.75 0.08v0c-0.533 0-1.157 0.033-1.87 0.1-0.72 0.067-1.397 0.133-2.03 0.2v0c-0.5 0.067-0.823-0.017-0.97-0.25-0.153-0.233-0.213-0.75-0.18-1.55v0c0-1.2-0.05-3.317-0.15-6.35v0c-0.133-3.167-0.217-5.917-0.25-8.25v0c0-2.367 0.05-4.767 0.15-7.2v0c0.067-3.067 0.1-5.167 0.1-6.3v0c0-1.533-0.05-2.65-0.15-3.35v0c-0.067-0.6-0.1-0.983-0.1-1.15v0c0-0.6 0.1-1.01 0.3-1.23 0.2-0.213 0.467-0.32 0.8-0.32v0c0.167 0 0.5 0.007 1 0.02 0.5 0.02 1.217-0.087 2.15-0.32v0c0.367-0.067 0.733-0.1 1.1-0.1v0c0.2 0 0.483 0.017 0.85 0.05 0.367 0.033 0.85 0.05 1.45 0.05v0c0.767 0 1.41 0.3 1.93 0.9 0.513 0.6 1.07 1.45 1.67 2.55v0l0.5 0.9c0.4 0.733 0.883 1.517 1.45 2.35v0l0.75 1.15zM275.4 21.54c1.867 0.2 3.517 0.75 4.95 1.65v0c3.333 2.1 5 5.617 5 10.55v0c0 2.933-1.123 4.883-3.37 5.85-2.253 0.967-4.613 1.45-7.08 1.45v0c-1.5 0-3.883 0.067-7.15 0.2v0c-1.767 0.1-3.017 0.15-3.75 0.15v0c-0.533 0-0.883-0.09-1.05-0.27-0.167-0.187-0.25-0.447-0.25-0.78v0-2.2l0.1-2.6c0.133-2.533 0.2-4.417 0.2-5.65v0l-0.1-6.25-0.05-5.9c0-0.933 0.1-2.467 0.3-4.6v0c0.133-1.533 0.2-2.45 0.2-2.75v0c0-0.533-0.033-1.433-0.1-2.7v0l-0.1-1.85c0-0.433 0.3-0.65 0.9-0.65v0l0.75 0.05c0.267 0 0.643-0.033 1.13-0.1 0.48-0.067 0.903-0.1 1.27-0.1v0c0.5 0 0.883 0.017 1.15 0.05v0c1.2 0.067 3.117 0.1 5.75 0.1v0c6.067 0 9.1 2.917 9.1 8.75v0c0 1.5-0.367 2.757-1.1 3.77-0.733 1.02-1.667 1.83-2.8 2.43v0c-1.1 0.633-2.4 1.1-3.9 1.4zM264.7 12.24l-0.1 3.05-0.1 1.95c0 0.367 0.06 0.583 0.18 0.65 0.113 0.067 0.387 0.1 0.82 0.1v0l1.45 0.05c0.933 0.067 1.617 0.1 2.05 0.1v0l1.65-0.05c1.133-0.067 2.05-0.1 2.75-0.1v0c3.167 0 4.75-1.267 4.75-3.8v0c0-2.733-2.217-4.433-6.65-5.1v0c-1.233-0.2-2.6-0.3-4.1-0.3v0c-0.5 0-1.35 0.033-2.55 0.1v0l-0.1 1.25c-0.033 0.5-0.05 1.2-0.05 2.1zM273.45 37.79c4.3 0 6.45-1.633 6.45-4.9v0c0-1.733-0.357-3.133-1.07-4.2-0.72-1.067-1.513-1.843-2.38-2.33-0.867-0.48-1.583-0.753-2.15-0.82v0c-0.533-0.067-1.9-0.177-4.1-0.33-2.2-0.147-3.783-0.237-4.75-0.27v0c-0.533 0-0.867 0.04-1 0.12-0.133 0.087-0.2 0.247-0.2 0.48v0c0 0.2 0.007 0.517 0.02 0.95 0.02 0.433 0.03 1.1 0.03 2v0c0 0.6-0.033 1.433-0.1 2.5v0l-0.05 2-0.05 3.5c0 0.333 0.043 0.55 0.13 0.65 0.08 0.1 0.22 0.15 0.42 0.15v0l2.6 0.1c0.5 0 1.35 0.067 2.55 0.2v0c1.6 0.133 2.817 0.2 3.65 0.2zM315.65 39.74c0.167 0.333 0.25 0.55 0.25 0.65v0c0 0.267-0.3 0.4-0.9 0.4v0h-3.6c-0.133 0-0.267-0.117-0.4-0.35-0.133-0.233-0.25-0.467-0.35-0.7-0.1-0.233-0.183-0.433-0.25-0.6v0c-0.167-0.333-0.473-1.1-0.92-2.3-0.453-1.2-0.797-2.15-1.03-2.85v0c-0.1-0.333-0.3-0.823-0.6-1.47-0.3-0.653-0.517-1.113-0.65-1.38v0c-0.133-0.4-0.257-0.667-0.37-0.8-0.12-0.133-0.297-0.2-0.53-0.2v0c-0.233 0-0.523 0.017-0.87 0.05-0.353 0.033-0.73 0.067-1.13 0.1v0c-0.267 0.067-1.1 0.1-2.5 0.1v0c-0.967 0-1.917 0.033-2.85 0.1v0c-0.3 0.033-0.833 0.05-1.6 0.05v0l-2.65-0.05c-0.167 0-0.29 0.067-0.37 0.2-0.087 0.133-0.147 0.29-0.18 0.47-0.033 0.187-0.067 0.33-0.1 0.43v0l-0.3 1.25c-0.1 0.467-0.227 1.007-0.38 1.62-0.147 0.62-0.27 1.197-0.37 1.73v0l-0.55 2.15-0.4 1.45c-0.1 0.4-0.193 0.657-0.28 0.77-0.08 0.12-0.203 0.18-0.37 0.18v0h-2.95c-0.167 0-0.25-0.067-0.25-0.2v0c0-0.067 0.067-0.3 0.2-0.7v0c0.267-0.633 0.5-1.267 0.7-1.9v0c1.233-4.133 1.967-6.833 2.2-8.1v0c0.3-1.667 0.917-3.817 1.85-6.45v0c0.3-1.133 0.583-2.167 0.85-3.1v0c0.1-0.467 0.25-1.033 0.45-1.7v0c0.633-2.333 1.267-4.517 1.9-6.55v0l1.25-4c0.267-1.033 0.6-2.1 1-3.2v0c0.2-0.5 0.433-0.617 0.7-0.35v0c0.2 0.133 0.35 0.367 0.45 0.7 0.1 0.333 0.167 0.567 0.2 0.7v0c0.1 0.4 0.983 2.4 2.65 6v0c0.667 1.367 1.383 3.15 2.15 5.35v0c0.333 0.967 1.25 3.05 2.75 6.25v0c0.767 1.567 1.267 2.65 1.5 3.25v0c0.533 1.167 1.967 4 4.3 8.5v0l0.6 1.25c0.767 1.7 1.35 2.783 1.75 3.25zM302.55 23.24c0.233-0.033 0.433-0.05 0.6-0.05 0.167 0 0.3-0.017 0.4-0.05 0.1-0.033 0.15-0.083 0.15-0.15v0c0-0.067-0.05-0.2-0.15-0.4v0c-0.167-0.3-0.55-1.143-1.15-2.53-0.6-1.38-1.017-2.42-1.25-3.12v0c-0.333-0.8-0.593-1.467-0.78-2-0.18-0.533-0.32-0.9-0.42-1.1v0c-0.067-0.167-0.143-0.333-0.23-0.5-0.08-0.167-0.153-0.3-0.22-0.4-0.067-0.1-0.133-0.15-0.2-0.15v0c-0.1 0-0.21 0.25-0.33 0.75-0.113 0.5-0.203 0.883-0.27 1.15v0c-0.6 1.933-1.033 3.4-1.3 4.4v0c-0.133 0.5-0.323 1.107-0.57 1.82-0.253 0.72-0.43 1.213-0.53 1.48v0c-0.1 0.333-0.15 0.6-0.15 0.8v0c0 0.2 0.15 0.3 0.45 0.3v0c0.7 0 1.777-0.023 3.23-0.07 1.447-0.053 2.353-0.113 2.72-0.18zM340.45 7.49v0.55c0 0.767-0.067 1.15-0.2 1.15v0c-0.2 0-0.423-0.027-0.67-0.08-0.253-0.047-0.563-0.07-0.93-0.07v0h-8l-6.2-0.05c-0.2 0-0.95 0.05-2.25 0.15v0l-1.15 0.1-0.1 1.35c-0.033 0.5-0.05 1.283-0.05 2.35v0c0 0.533 0.033 1.233 0.1 2.1v0c0.067 0.8 0.1 1.383 0.1 1.75v0 2c0 0.533 0.017 0.95 0.05 1.25v0c0.3 0.033 0.75 0.05 1.35 0.05v0h2c0.2 0 0.6-0.033 1.2-0.1v0c0.867-0.067 1.617-0.1 2.25-0.1v0c0.267 0 1.2 0.05 2.8 0.15v0l1.1 0.05c0.267 0 0.65-0.027 1.15-0.08 0.5-0.047 0.983-0.07 1.45-0.07v0l1.65 0.05c0.867 0.067 1.467 0.1 1.8 0.1v0c0.367 0 0.617-0.017 0.75-0.05v0l0.3-0.05c0.233 0 0.4 0.073 0.5 0.22 0.1 0.153 0.133 0.297 0.1 0.43v0c-0.033 0.233-0.05 0.523-0.05 0.87 0 0.353-0.017 0.663-0.05 0.93v0c-0.033 0.267-0.083 0.427-0.15 0.48-0.067 0.047-0.267 0.07-0.6 0.07v0l-2-0.2c-2.5-0.233-4.133-0.35-4.9-0.35v0c-2.833 0-4.917 0.05-6.25 0.15v0c-0.533 0.067-1.117 0.1-1.75 0.1-0.633 0-1.033 0-1.2 0v0c-0.633 0-1.1-0.017-1.4-0.05v0l-0.15 0.8c-0.067 0.6-0.1 1.133-0.1 1.6v0c0 0.4 0.033 0.867 0.1 1.4v0c0.067 0.533 0.1 1 0.1 1.4v0l0.05 5.95-0.05 2.5c-0.033 0.3-0.05 0.717-0.05 1.25v0c0.433 0.033 1.067 0.05 1.9 0.05v0c0.7 0.033 1.783 0.05 3.25 0.05v0l2.7 0.05c0.567 0.033 1.433 0.05 2.6 0.05v0c0.7 0 1.617-0.033 2.75-0.1v0l2.1-0.05c0.8 0 1.467 0.017 2 0.05 0.533 0.033 0.933 0.05 1.2 0.05v0c0.267 0 0.427 0.05 0.48 0.15 0.047 0.1 0.07 0.317 0.07 0.65v0c0 0.233-0.017 0.473-0.05 0.72-0.033 0.253-0.05 0.53-0.05 0.83v0c0 0.233-0.083 0.39-0.25 0.47-0.167 0.087-0.433 0.13-0.8 0.13v0c-0.367 0-0.667-0.017-0.9-0.05v0c-0.9-0.1-2.717-0.15-5.45-0.15v0c-1.667 0-2.867 0.017-3.6 0.05v0c-0.567 0.033-1.5 0.05-2.8 0.05v0l-4.65-0.05c-0.533-0.033-1.167-0.05-1.9-0.05v0c-0.467 0-0.773-0.06-0.92-0.18-0.153-0.113-0.23-0.303-0.23-0.57v0l0.05-0.8c0.033-0.133 0.05-0.283 0.05-0.45v0c0-0.1-0.017-0.343-0.05-0.73-0.033-0.38-0.05-1.087-0.05-2.12v0c0-1-0.033-2.633-0.1-4.9v0c-0.1-1.867-0.15-3.667-0.15-5.4v0c0-0.733 0.083-2.85 0.25-6.35v0c0.033-0.7 0.067-1.4 0.1-2.1 0.033-0.7 0.05-1.333 0.05-1.9v0c0-3.867-0.05-6.417-0.15-7.65v0c-0.1-0.8 0.383-1.2 1.45-1.2v0c0.267 0 0.7 0.033 1.3 0.1v0c0.533 0.067 0.933 0.1 1.2 0.1v0l3.15-0.1c2.267-0.133 4.017-0.2 5.25-0.2v0c1.433 0 3.45 0.033 6.05 0.1v0c0.833 0.033 1.717 0.05 2.65 0.05v0c0.4 0 0.65 0.1 0.75 0.3 0.1 0.2 0.143 0.407 0.13 0.62-0.02 0.22-0.03 0.363-0.03 0.43zM354.65 34.19c0.233-0.7 0.593-1.71 1.08-3.03 0.48-1.313 0.87-2.303 1.17-2.97v0c0.333-0.6 0.867-1.993 1.6-4.18 0.733-2.18 1.333-4.003 1.8-5.47v0l2.1-5.2c0.7-1.633 1.117-2.65 1.25-3.05v0c0.3-0.7 0.617-1.617 0.95-2.75v0l0.5-1.4c0.067-0.267 0.16-0.433 0.28-0.5 0.113-0.067 0.287-0.05 0.52 0.05v0c0.2 0.067 0.443 0.1 0.73 0.1 0.28 0 0.453 0 0.52 0v0c0.2 0 0.3 0.05 0.3 0.15v0c0 0.067-0.067 0.233-0.2 0.5v0c-0.667 1.767-1.233 3.05-1.7 3.85v0c-0.333 0.6-1.133 2.723-2.4 6.37-1.267 3.653-2.083 6.063-2.45 7.23v0c-0.033 0.067-0.8 2.2-2.3 6.4v0c-0.9 2.533-1.45 4.067-1.65 4.6v0c-0.367 0.9-0.757 1.94-1.17 3.12-0.42 1.187-0.663 1.847-0.73 1.98v0c-0.067 0.267-0.14 0.433-0.22 0.5-0.087 0.067-0.23 0.1-0.43 0.1v0c-0.167 0-0.283-0.027-0.35-0.08-0.067-0.047-0.107-0.103-0.12-0.17-0.02-0.067-0.047-0.117-0.08-0.15v0l-0.8-2.5c-0.933-3.033-1.517-4.867-1.75-5.5v0l-3.4-9.6c0.033 0.067-0.4-1.317-1.3-4.15v0c-0.567-2-1.1-3.733-1.6-5.2v0c-0.167-0.367-0.533-1.65-1.1-3.85v0l-0.65-2.55c-0.133-0.367-0.2-0.667-0.2-0.9v0c0-0.133 0.033-0.217 0.1-0.25 0.067-0.033 0.133-0.06 0.2-0.08 0.067-0.013 0.117-0.02 0.15-0.02v0h1.75 0.15c0.3 0 0.5 0.05 0.6 0.15 0.1 0.1 0.167 0.223 0.2 0.37 0.033 0.153 0.067 0.263 0.1 0.33v0c0.2 0.467 0.517 1.667 0.95 3.6v0c0.3 1.233 0.917 3.283 1.85 6.15v0c0.167 0.533 0.493 1.55 0.98 3.05 0.48 1.5 0.803 2.6 0.97 3.3v0c0.433 1.767 1.033 3.8 1.8 6.1v0l0.55 1.55c0.4 1.267 0.75 2.3 1.05 3.1v0c0.233 0.533 0.367 0.833 0.4 0.9z" fill="#4fff09" fill-rule="nonzero" stroke="none" stroke-width="1" stroke-linecap="butt" stroke-linejoin="miter" stroke-miterlimit="10" stroke-dasharray="" stroke-dashoffset="0" font-family="none" font-weight="none" font-size="none" text-anchor="none" style="mix-blend-mode: normal" data-fill-palette-color="primary" opacity="1"></path></g></svg></g></svg></g></svg></g></svg></g></svg></g><defs></defs></svg><rect width="395.52" height="132.56389032961926" fill="none" stroke="none" visibility="hidden"></rect></g></svg></g></svg>